<?xml version="1.0" encoding="UTF-8" standalone="no"?>
<svg
   height="17.0075"
   viewBox="0 0 19.062742 17.0075"
   width="19.062742"
   fill="#000000"
   version="1.1"
   id="svg4"
   sodipodi:docname="warning_black_24dp.svg"
   inkscape:version="1.1 (c68e22c387, 2021-05-23)"
   xmlns:inkscape="http://www.inkscape.org/namespaces/inkscape"
   xmlns:sodipodi="http://sodipodi.sourceforge.net/DTD/sodipodi-0.dtd"
   xmlns="http://www.w3.org/2000/svg"
   xmlns:svg="http://www.w3.org/2000/svg">
  <defs
     id="defs8" />
  <sodipodi:namedview
     id="namedview6"
     pagecolor="#ffffff"
     bordercolor="#666666"
     borderopacity="1.0"
     inkscape:pageshadow="2"
     inkscape:pageopacity="0.0"
     inkscape:pagecheckerboard="0"
     showgrid="false"
     inkscape:zoom="25.279067"
     inkscape:cx="7.8127882"
     inkscape:cy="8.0501387"
     inkscape:window-width="1920"
     inkscape:window-height="1017"
     inkscape:window-x="1912"
     inkscape:window-y="-8"
     inkscape:window-maximized="1"
     inkscape:current-layer="svg4" />
  <path
     d="M 2.0013712,17.0075 H 17.061371 c 1.54,0 2.5,-1.67 1.73,-3 l -7.53,-13.01 c -0.77,-1.33 -2.6899998,-1.33 -3.4599998,0 l -7.53,13.01 c -0.77,1.33 0.19,3 1.73,3 z m 7.53,-7 c -0.55,0 -1,-0.45 -1,-1 v -2 c 0,-0.55 0.45,-1 1,-1 0.5499998,0 0.9999998,0.45 0.9999998,1 v 2 c 0,0.55 -0.45,1 -0.9999998,1 z m 0.9999998,4 H 8.5313712 v -2 h 1.9999998 z"
     id="path2"
     style="fill:#cc1100;fill-opacity:1" />
</svg>
